<svg width="50" height="50" viewBox="0 0 50 50" fill="none" xmlns="http://www.w3.org/2000/svg">
<path d="M40.1769 15.5885C45.1475 24.1977 29.6977 30.0422 33.5885 40.1769C27.2587 32.9136 13.9706 42.1977 9 33.5885C4.02944 24.9792 19.2308 15.3087 15.5885 9C19.1041 15.0892 35.2064 6.97919 40.1769 15.5885Z" fill="#F6F6F6"/>
<path d="M18.3085 31.0884V30.6684C19.0285 30.6684 19.4485 30.5351 19.5685 30.2684V20.2084C19.4485 19.9418 19.0285 19.8084 18.3085 19.8084V19.3884H23.3685V19.8084C22.6485 19.8084 22.2285 19.9418 22.1085 20.2084V24.6684H26.5285V20.2084C26.4085 19.9418 25.9885 19.8084 25.2685 19.8084V19.3884H30.3285V19.8084C29.6085 19.8084 29.1885 19.9418 29.0685 20.2084V30.2684C29.1885 30.5351 29.6085 30.6684 30.3285 30.6684V31.0884H25.2685V30.6684C25.9885 30.6684 26.4085 30.5351 26.5285 30.2684V25.3484H22.1085V30.2684C22.2285 30.5351 22.6485 30.6684 23.3685 30.6684V31.0884H18.3085Z" fill="#284B4F"/>
</svg>
